<svg xmlns="http://www.w3.org/2000/svg" width="50" height="50" viewBox="0 0 50 50">
  <g id="Group_16" data-name="Group 16" transform="translate(299.994 18)">
    <g id="Group_15" data-name="Group 15" transform="translate(-299.994 -18)">
      <path id="Path_44" data-name="Path 44" d="M-274.994-18a25,25,0,0,0-25,25,25,25,0,0,0,25,25,25,25,0,0,0,25-25A25,25,0,0,0-274.994-18Zm0,8.781L-260.2.006h-29.588Zm14.978,23.956h0a2.678,2.678,0,0,1-2.679,2.679h-24.6a2.678,2.678,0,0,1-2.679-2.679V.593a2.664,2.664,0,0,1,.042-.458l14.135,8.814c.017.011.036.018.054.028l.057.03a1.484,1.484,0,0,0,.308.12l.033.007a1.525,1.525,0,0,0,.349.044h0a1.5,1.5,0,0,0,.349-.044l.033-.007a1.5,1.5,0,0,0,.308-.12l.057-.03c.018-.01.036-.017.054-.028L-260.057.135a2.661,2.661,0,0,1,.042.458V14.737Z" transform="translate(299.994 18)" fill="#f3c062"/>
    </g>
  </g>
</svg>
