<svg xmlns="http://www.w3.org/2000/svg" width="40" height="40" viewBox="0 0 50 50">
  <g id="Group_14" data-name="Group 14" transform="translate(-231 -462)">
    <circle id="Ellipse_1" data-name="Ellipse 1" cx="4.785" cy="4.785" r="4.785" transform="translate(251.215 482.215)" fill="#fff"/>
    <path id="Path_42" data-name="Path 42" d="M267.19,478.533a4.747,4.747,0,0,0-2.723-2.723,7.913,7.913,0,0,0-2.666-.495c-1.514-.069-1.968-.084-5.8-.084s-4.287.015-5.8.083a7.932,7.932,0,0,0-2.666.5,4.753,4.753,0,0,0-2.724,2.723,7.965,7.965,0,0,0-.5,2.666c-.068,1.514-.084,1.968-.084,5.8s.016,4.287.084,5.8a7.957,7.957,0,0,0,.5,2.665,4.758,4.758,0,0,0,2.724,2.724,7.939,7.939,0,0,0,2.666.495c1.514.069,1.967.084,5.8.084s4.287-.015,5.8-.084a7.939,7.939,0,0,0,2.666-.495,4.748,4.748,0,0,0,2.723-2.724,7.925,7.925,0,0,0,.5-2.665c.068-1.515.083-1.969.083-5.8s-.015-4.287-.083-5.8A7.932,7.932,0,0,0,267.19,478.533ZM256,494.371A7.371,7.371,0,1,1,263.371,487,7.372,7.372,0,0,1,256,494.371Zm7.663-13.311a1.723,1.723,0,1,1,1.723-1.723A1.724,1.724,0,0,1,263.663,481.06Z" fill="#fff"/>
    <path id="Path_43" data-name="Path 43" d="M256,462a25,25,0,1,0,25,25A25,25,0,0,0,256,462Zm14.269,30.919a10.568,10.568,0,0,1-.667,3.484,7.345,7.345,0,0,1-4.2,4.2,10.568,10.568,0,0,1-3.484.667c-1.531.07-2.02.086-5.919.086s-4.388-.016-5.919-.086a10.568,10.568,0,0,1-3.484-.667,7.357,7.357,0,0,1-4.2-4.2,10.568,10.568,0,0,1-.667-3.484c-.07-1.531-.086-2.021-.086-5.919s.016-4.388.086-5.919a10.57,10.57,0,0,1,.666-3.484,7.362,7.362,0,0,1,4.2-4.2,10.568,10.568,0,0,1,3.484-.667c1.531-.07,2.021-.086,5.919-.086s4.388.016,5.919.086a10.6,10.6,0,0,1,3.484.666,7.354,7.354,0,0,1,4.2,4.2,10.564,10.564,0,0,1,.668,3.484c.069,1.531.085,2.021.085,5.919S270.339,491.388,270.269,492.919Z" fill="#fff"/>
  </g>
</svg>
