<?xml version="1.0" encoding="utf-8"?>
<!-- Generator: Adobe Illustrator 25.0.0, SVG Export Plug-In . SVG Version: 6.00 Build 0)  -->
<svg version="1.1" id="Layer_1" xmlns="http://www.w3.org/2000/svg" xmlns:xlink="http://www.w3.org/1999/xlink" x="0px" y="0px"
	 viewBox="0 0 942.94 421.8" style="enable-background:new 0 0 942.94 421.8;" xml:space="preserve">
<style type="text/css">
	.st0{fill:white;}
	.st1{fill:#F4C55C;}
</style>
<g>
	<g>
		<g>
			<path class="st0" d="M307.51,243.4v-74.8h-30.76v-5.26h73.77v5.26h-30.88v74.8H307.51z"/>
			<path class="st0" d="M359.09,243.4v-80.06h12.24v38.2h34.65v-38.2h12.24v80.06h-12.24v-36.37h-34.65v36.37H359.09z"/>
			<path class="st0" d="M433.2,243.4v-80.06h49.98v5.26h-37.86v32.94h16.93v5.49h-16.93v30.99h37.86v5.38H433.2z"/>
			<path class="st0" d="M524.7,243.4v-80.06h33.28c5.57,0,10.31,1.96,14.24,5.89c3.92,3.93,5.89,8.63,5.89,14.12
				c0,3.59-0.9,6.92-2.69,10.01c-1.79,3.09-4.1,5.43-6.92,7.03c4.88,1.07,8.92,3.57,12.12,7.49c3.2,3.93,4.8,8.44,4.8,13.55
				c0,6.02-2.12,11.19-6.35,15.5c-4.23,4.31-9.4,6.46-15.5,6.46H524.7z M537.05,199.83h17.84c4.12,0,7.76-1.64,10.92-4.92
				c3.16-3.28,4.75-7.13,4.75-11.55c0-4.58-1.59-8.46-4.75-11.66c-3.16-3.2-7-4.8-11.49-4.8h-17.27V199.83z M537.05,239.4h19.79
				c5.03,0,9.28-1.73,12.75-5.2c3.47-3.47,5.2-7.72,5.2-12.75c0-4.88-1.77-9.07-5.32-12.58c-3.55-3.51-7.76-5.26-12.64-5.26h-19.79
				V239.4z"/>
			<path class="st0" d="M597.2,243.4v-80.06h49.98v5.26h-37.86v32.94h16.93v5.49h-16.93v30.99h37.86v5.38H597.2z"/>
			<path class="st0" d="M653.59,236.19l2.06-5.03c9.76,3.59,18.49,5.38,26.19,5.38c4.5,0,8.46-0.88,11.89-2.63
				c3.43-1.75,5.15-4,5.15-6.75c0-1.14-0.31-2.32-0.91-3.54c-0.61-1.22-1.54-2.46-2.8-3.72c-1.26-1.26-2.48-2.4-3.66-3.43
				c-1.18-1.03-2.69-2.17-4.52-3.43c-1.83-1.26-3.3-2.23-4.4-2.92c-1.11-0.69-2.55-1.56-4.34-2.63c-1.79-1.07-2.88-1.72-3.26-1.94
				c-2.82-1.75-5.05-3.2-6.69-4.34c-1.64-1.14-3.68-2.74-6.12-4.8c-2.44-2.06-4.27-4.21-5.49-6.46c-1.22-2.25-1.83-4.56-1.83-6.92
				c0-3.43,0.72-6.44,2.17-9.04c1.45-2.59,3.16-4.56,5.15-5.89c1.98-1.33,4.29-2.42,6.92-3.26c2.63-0.84,4.84-1.35,6.63-1.54
				c1.79-0.19,3.53-0.29,5.2-0.29c6.71,0,13.5,1.33,20.36,4l-1.14,3.78c-6.56-2.82-12.47-4.23-17.73-4.23
				c-3.66,0-7.38,0.99-11.15,2.98c-3.78,1.98-5.66,4.61-5.66,7.89c0,1.45,0.57,2.94,1.71,4.46c1.14,1.53,2.9,3.11,5.26,4.75
				c2.36,1.64,4.75,3.2,7.15,4.69c2.4,1.49,5.43,3.38,9.09,5.66c3.66,2.29,6.86,4.35,9.61,6.18c4.88,3.36,8.56,7.02,11.04,10.98
				c2.48,3.97,3.72,7.82,3.72,11.55c0,5.19-2.29,9.49-6.86,12.92s-10.71,5.15-18.41,5.15C675.09,243.74,663.65,241.23,653.59,236.19
				z"/>
			<path class="st0" d="M743.94,243.4v-74.8h-30.76v-5.26h73.77v5.26h-30.88v74.8H743.94z"/>
		</g>
		<g>
			<path class="st0" d="M276.75,352.86V272.8h12.24v80.06H276.75z"/>
			<path class="st0" d="M304.77,352.86V272.8h12.24l45.86,72.28V272.8h4.92v80.06h-12.35l-45.75-72.28v72.28H304.77z"/>
			<path class="st0" d="M407.35,352.86l-30.19-80.06h12.35l27.91,74.34l27.91-74.34h4.46l-30.19,80.06H407.35z"/>
			<path class="st0" d="M459.16,352.86V272.8h49.98v5.26h-37.86V311h16.93v5.49h-16.93v30.99h37.86v5.38H459.16z"/>
			<path class="st0" d="M515.54,345.65l2.06-5.03c9.76,3.59,18.49,5.38,26.19,5.38c4.5,0,8.46-0.88,11.89-2.63
				c3.43-1.75,5.15-4,5.15-6.75c0-1.14-0.31-2.32-0.91-3.54c-0.61-1.22-1.54-2.46-2.8-3.72c-1.26-1.26-2.48-2.4-3.66-3.43
				c-1.18-1.03-2.69-2.17-4.52-3.43c-1.83-1.26-3.3-2.23-4.4-2.92c-1.11-0.69-2.55-1.56-4.34-2.63c-1.79-1.07-2.88-1.72-3.26-1.94
				c-2.82-1.75-5.05-3.2-6.69-4.34c-1.64-1.14-3.68-2.74-6.12-4.8c-2.44-2.06-4.27-4.21-5.49-6.46c-1.22-2.25-1.83-4.56-1.83-6.92
				c0-3.43,0.72-6.44,2.17-9.04c1.45-2.59,3.16-4.56,5.15-5.89c1.98-1.33,4.29-2.42,6.92-3.26c2.63-0.84,4.84-1.35,6.63-1.54
				c1.79-0.19,3.53-0.29,5.2-0.29c6.71,0,13.5,1.33,20.36,4l-1.14,3.78c-6.56-2.82-12.47-4.23-17.73-4.23
				c-3.66,0-7.38,0.99-11.15,2.98c-3.78,1.98-5.66,4.61-5.66,7.89c0,1.45,0.57,2.94,1.71,4.46c1.14,1.53,2.9,3.11,5.26,4.75
				c2.36,1.64,4.75,3.2,7.15,4.69c2.4,1.49,5.43,3.38,9.09,5.66c3.66,2.29,6.86,4.35,9.61,6.18c4.88,3.36,8.56,7.02,11.04,10.98
				c2.48,3.97,3.72,7.82,3.72,11.55c0,5.19-2.29,9.49-6.86,12.92c-4.58,3.43-10.71,5.15-18.41,5.15
				C537.05,353.2,525.61,350.68,515.54,345.65z"/>
			<path class="st0" d="M605.9,352.86v-74.8h-30.76v-5.26h73.77v5.26h-30.88v74.8H605.9z"/>
			<path class="st0" d="M657.59,352.86V272.8h12.35l27.79,65.88l28.02-65.88h12.24v80.06h-12.35v-69.54l-25.62,60.62h-12.47
				l-25.16-59.7v68.62H657.59z"/>
			<path class="st0" d="M752.97,352.86V272.8h49.98v5.26H765.1V311h16.93v5.49H765.1v30.99h37.86v5.38H752.97z"/>
			<path class="st0" d="M811.19,352.86V272.8h12.24l45.75,72.51v-60.27h4.8v67.82h-12.12l-45.86-72.39v72.39H811.19z M899.82,352.86
				v-74.8h-30.65v-5.26h73.77v5.26h-30.76v74.8H899.82z"/>
		</g>
	</g>
	<path class="st1" d="M209.9,411.73H0V0l164.98,95v148.64l44.92,25.94V411.73z M15.3,396.43h179.3V278.42l-44.92-25.94V103.85
		L15.3,26.47V396.43z M172.45,374.32H37.41V64.56l90.16,52.07v123.1l-37.44-21.61v25.54l82.33,47.54V374.32z M52.71,359.02h104.44
		v-58.98L74.82,252.5v-60.87l37.44,21.61v-87.78l-59.56-34.4V359.02z"/>
	<g>
		<g>
			<path class="st1" d="M280.05,390.64l0.26,3.17c1.45-2.74,4.07-3.51,6.51-3.51c1.84-0.04,3.64,0.6,4.92,1.58l-1.58,3
				c-1.11-0.77-2.23-1.16-3.68-1.16c-3.38,0.04-6.21,2.44-6.21,6.34v11.77h-3.51v-21.15H280L280.05,390.64z"/>
			<path class="st1" d="M321.88,408.45c-2.14,2.53-5.82,3.77-9.12,3.77c-6.55,0-11.13-4.32-11.13-11.05
				c0-6.38,4.58-10.96,10.96-10.96c6.46,0,11.39,3.98,10.57,12.42h-17.98c0.38,3.9,3.6,6.34,7.66,6.34c2.4,0,5.31-0.94,6.72-2.65
				l2.36,2.14H321.88z M319.82,399.71c-0.17-4.11-3-6.34-7.15-6.34c-3.68,0-6.89,2.23-7.49,6.29h14.64V399.71z"/>
			<path class="st1" d="M353.99,411.91l-0.08-3.85c-1.67,2.91-4.88,4.28-7.79,4.28c-6.08,0-10.83-4.19-10.83-11.09
				c0-6.85,4.84-10.96,10.87-10.92c3.17,0,6.29,1.46,7.83,4.2l0.04-3.85h3.43v21.15h-3.38L353.99,411.91z M346.28,393.68
				c-4.19,0-7.58,3-7.58,7.71s3.38,7.75,7.58,7.75c10.19,0,10.19-15.5,0.04-15.5L346.28,393.68z"/>
			<path class="st1" d="M376.21,411.83h-3.51v-29.97h3.51V411.83z"/>
			<path class="st1" d="M429.9,408.45c-2.14,2.53-5.82,3.77-9.12,3.77c-6.55,0-11.13-4.32-11.13-11.05
				c0-6.38,4.58-10.96,10.96-10.96c6.46,0,11.39,3.98,10.57,12.42H413.2c0.38,3.9,3.6,6.34,7.66,6.34c2.4,0,5.31-0.94,6.72-2.65
				l2.36,2.14H429.9z M427.84,399.71c-0.17-4.11-3-6.34-7.15-6.34c-3.68,0-6.89,2.23-7.49,6.29h14.64V399.71z"/>
			<path class="st1" d="M458.2,395.39c-1.84-1.67-3.77-2.05-5.95-2.05c-2.91-0.04-5.26,0.98-5.22,3.08
				c0.04,2.18,2.61,2.83,5.27,3.12c3.85,0.47,8.99,1.24,8.91,6.47c-0.09,4.24-4.11,6.34-8.86,6.34c-3.55,0-7.06-0.98-9.46-3.98
				l2.01-2.44c1.88,2.31,4.92,3.25,7.53,3.25c2.31,0,5.27-0.73,5.35-3.3c0.04-2.31-2.44-3-5.69-3.38c-4.07-0.51-8.44-1.58-8.44-6.08
				c-0.04-4.5,4.5-6.25,8.56-6.21c3.17,0,5.78,0.77,8.05,2.83l-2.01,2.31L458.2,395.39z"/>
			<path class="st1" d="M480.5,390.72h6.55v3h-6.59v11.18c0,2.48,0.81,4.07,3.34,4.07c0.94,0,2.01-0.3,2.96-0.77l1.03,2.91
				c-1.41,0.64-2.7,0.99-4.11,1.03c-4.54,0.09-6.68-2.57-6.68-7.23v-11.18h-4.24v-3h4.24v-5.82l3.51-0.38V390.72z"/>
			<path class="st1" d="M517.49,411.91l-0.08-3.85c-1.67,2.91-4.88,4.28-7.79,4.28c-6.08,0-10.83-4.19-10.83-11.09
				c0-6.85,4.84-10.96,10.87-10.92c3.17,0,6.29,1.46,7.83,4.2l0.04-3.85h3.43v21.15h-3.38L517.49,411.91z M509.79,393.68
				c-4.19,0-7.58,3-7.58,7.71s3.38,7.75,7.58,7.75c10.19,0,10.19-15.5,0.04-15.5L509.79,393.68z"/>
			<path class="st1" d="M541.9,390.72h6.55v3h-6.59v11.18c0,2.48,0.81,4.07,3.34,4.07c0.94,0,2.01-0.3,2.96-0.77l1.03,2.91
				c-1.41,0.64-2.7,0.99-4.11,1.03c-4.54,0.09-6.68-2.57-6.68-7.23v-11.18h-4.24v-3h4.24v-5.82l3.51-0.38V390.72z"/>
			<path class="st1" d="M580.43,408.45c-2.14,2.53-5.82,3.77-9.12,3.77c-6.55,0-11.13-4.32-11.13-11.05
				c0-6.38,4.58-10.96,10.96-10.96c6.46,0,11.39,3.98,10.57,12.42h-17.98c0.38,3.9,3.6,6.34,7.66,6.34c2.4,0,5.31-0.94,6.72-2.65
				l2.36,2.14H580.43z M578.37,399.71c-0.17-4.11-3-6.34-7.15-6.34c-3.68,0-6.89,2.23-7.49,6.29h14.64V399.71z"/>
			<path class="st1" d="M632.28,408.96c-2.27,2.27-4.97,3.25-7.88,3.25c-6.04,0-11.04-3.9-11.04-10.96s4.92-10.96,11.04-10.96
				c2.87,0,5.44,0.98,7.66,3.17l-2.23,2.31c-1.5-1.45-3.47-2.14-5.35-2.14c-4.19,0-7.58,2.87-7.58,7.62c0,4.92,3.43,7.62,7.53,7.62
				c2.01,0,4.03-0.68,5.52-2.23l2.36,2.36L632.28,408.96z"/>
			<path class="st1" d="M654.46,390.21c6.46,0,11,4.54,11,11.09c0,6.42-4.62,10.92-11,10.92c-6.34,0-10.96-4.5-10.96-10.92
				C643.5,394.75,648.16,390.21,654.46,390.21z M654.5,393.42c-4.33,0-7.49,3.17-7.49,7.88c0,4.45,3.13,7.62,7.45,7.62
				c4.37,0,7.49-3.17,7.53-7.62C661.99,396.59,658.74,393.42,654.5,393.42z"/>
			<path class="st1" d="M679.07,390.64h3.21l0.17,3.38c1.84-2.53,4.41-3.68,7.24-3.68c5.35,0,9.29,3.6,9.29,9.8v11.69h-3.51v-11.65
				c0-4.07-2.4-6.59-6.42-6.59c-3.85,0.04-6.51,3.08-6.51,6.89v11.34h-3.47v-21.15V390.64z"/>
			<path class="st1" d="M727.24,395.39c-1.84-1.67-3.77-2.05-5.95-2.05c-2.91-0.04-5.27,0.98-5.22,3.08
				c0.04,2.18,2.61,2.83,5.27,3.12c3.85,0.47,8.99,1.24,8.91,6.47c-0.09,4.24-4.11,6.34-8.86,6.34c-3.55,0-7.06-0.98-9.46-3.98
				l2.01-2.44c1.88,2.31,4.92,3.25,7.53,3.25c2.31,0,5.27-0.73,5.35-3.3c0.04-2.31-2.44-3-5.69-3.38c-4.07-0.51-8.44-1.58-8.44-6.08
				c-0.04-4.5,4.5-6.25,8.56-6.21c3.17,0,5.78,0.77,8.05,2.83l-2.01,2.31L727.24,395.39z"/>
			<path class="st1" d="M760.03,411.83l-0.17-3.38c-1.88,2.57-4.41,3.68-7.36,3.72c-5.39,0-9.2-3.64-9.2-9.8v-11.69h3.51v11.64
				c0,4.07,2.4,6.59,6.42,6.59c3.85-0.04,6.51-3.08,6.51-6.89v-11.34h3.51v21.15h-3.25H760.03z"/>
			<path class="st1" d="M782,411.83h-3.51v-29.97H782V411.83z"/>
			<path class="st1" d="M803.19,390.72h6.55v3h-6.59v11.18c0,2.48,0.81,4.07,3.34,4.07c0.94,0,2.01-0.3,2.96-0.77l1.03,2.91
				c-1.41,0.64-2.7,0.99-4.11,1.03c-4.54,0.09-6.68-2.57-6.68-7.23v-11.18h-4.24v-3h4.24v-5.82l3.51-0.38V390.72z"/>
			<path class="st1" d="M840.18,411.91l-0.08-3.85c-1.67,2.91-4.88,4.28-7.79,4.28c-6.08,0-10.83-4.19-10.83-11.09
				c0-6.85,4.84-10.96,10.87-10.92c3.17,0,6.29,1.46,7.83,4.2l0.04-3.85h3.43v21.15h-3.38L840.18,411.91z M832.47,393.68
				c-4.19,0-7.58,3-7.58,7.71s3.38,7.75,7.58,7.75c10.19,0,10.19-15.5,0.04-15.5L832.47,393.68z"/>
			<path class="st1" d="M858.64,390.64h3.21l0.17,3.38c1.84-2.53,4.41-3.68,7.24-3.68c5.35,0,9.29,3.6,9.29,9.8v11.69h-3.51v-11.65
				c0-4.07-2.4-6.59-6.42-6.59c-3.85,0.04-6.51,3.08-6.51,6.89v11.34h-3.47v-21.15V390.64z"/>
			<path class="st1" d="M910.82,408.96c-2.27,2.27-4.97,3.25-7.88,3.25c-6.04,0-11.04-3.9-11.04-10.96s4.92-10.96,11.04-10.96
				c2.87,0,5.44,0.98,7.66,3.17l-2.23,2.31c-1.5-1.45-3.47-2.14-5.35-2.14c-4.19,0-7.58,2.87-7.58,7.62c0,4.92,3.43,7.62,7.53,7.62
				c2.01,0,4.03-0.68,5.52-2.23l2.36,2.36L910.82,408.96z"/>
			<path class="st1" d="M929.58,421.8h-3.77l4.41-10.27l-8.52-20.85h3.98l4.15,11l2.31,6.03l2.27-5.99l4.67-11.04h3.85L929.58,421.8
				z"/>
		</g>
	</g>
</g>
</svg>
