<svg xmlns="http://www.w3.org/2000/svg" width="50" height="50" viewBox="0 0 50 50">
  <g id="Group_13" data-name="Group 13" transform="translate(327.962 368.663)">
    <g id="Group_11" data-name="Group 11" transform="translate(-327.962 -368.663)">
      <path id="Path_41" data-name="Path 41" d="M-285.287-361.343a25,25,0,0,0-35.355.01,24.987,24.987,0,0,0,.01,35.351,25,25,0,0,0,35.355-.01,25.031,25.031,0,0,0,7.314-17.675A24.979,24.979,0,0,0-285.287-361.343Zm-4.814,27.5h0l-1.276,1.255a6.654,6.654,0,0,1-6.287,1.8,22.164,22.164,0,0,1-6.432-2.884,29.59,29.59,0,0,1-5.073-4.087,30.4,30.4,0,0,1-3.8-4.6,23.532,23.532,0,0,1-2.853-5.767,6.646,6.646,0,0,1,1.67-6.8l1.484-1.483a1.052,1.052,0,0,1,1.494,0h0l4.679,4.678a1.052,1.052,0,0,1,0,1.494h0l-2.749,2.749a2.229,2.229,0,0,0-.228,2.915,32.245,32.245,0,0,0,3.289,3.838,31.614,31.614,0,0,0,4.336,3.641,2.264,2.264,0,0,0,2.884-.249l2.656-2.7a1.052,1.052,0,0,1,1.494,0h0l4.71,4.7A1.061,1.061,0,0,1-290.1-333.845Z" transform="translate(327.962 368.662)" fill="#f3c062"/>
    </g>
  </g>
</svg>
